{"title":"Shohei Imamura - Zegen.1987.DVDRip.x264-SMz","uid":11773099,"size":1911341022,"categoryP":"video","categoryS":"movies","magnet":"?xt=urn:btih:89fbae0d00863508476439ff6a054e89a7d3c68c&amp;dn=Shohei+Imamura+-+Zegen.1987.DVDRip.x264-SMz&amp;tr=udp%3A%2F%2Ftracker.openbittorrent.com%3A80&amp;tr=udp%3A%2F%2Fopen.demonii.com%3A1337&amp;tr=udp%3A%2F%2Ftracker.coppersurfer.tk%3A6969&amp;tr=udp%3A%2F%2Fexodus.desync.com%3A6969","seeders":1,"leechers":1,"uploader":"rpessoa","files":1,"time":1427152172,"description":"his movie is black satire of Japanese imperial ambitions in the 20th century. In Meiji era Japan (1868-1910), the Japanese state sought to establish itself as an empire as a way to both catch up to and remain free from the West. These activities also lay the foundation for the disasters to come mid-century. This movie satirizes those efforts from a mid-1980s perspective, giving it an obvious subtext of being a commentary on the efforts of late 20th century Japanese businessmen abroad as well. The &quot;hero&quot; is a businessman who, realizing that the Japanese armed forces will likely soon be advancing across Asia, decides that they will require brothels wherever they go as well and so sets up shop in Southeast Asia. A very black comedy from one of Japan's finest film satirists (cf. &quot;Pigs and Battleships,&quot; &quot;The Pornographers&quot;) best known abroad ca. 1999 for &quot;The Eel&quot; and &quot;Black Rain&quot; (the film based on the novel about Hiroshima, not the Michael Douglas flick). From IMDb\n &lt;a href=&quot;\nhttp://www.imdb.com/title/tt0094370/&quot; rel=&quot;nofollow&quot; target=&quot;_NEW&quot;&gt;\nhttp://www.imdb.com/title/tt0094370/&lt;/a&gt;\n\nSubs: English\n\nGeneral\nUnique ID : 190782764021703424890195560337334224162 (0x8F876C7ED3E05E6186B33473089E4522)\nComplete name : Zegen.1987.DVDRip.x264-SMz.mkv\nFormat : Matroska\nFormat version : Version 4 / Version 2\nFile size : 1.78 GiB\nDuration : 2h 4mn\nOverall bit rate : 2 047 Kbps\nEncoded date : UTC 2014-05-29 20:04:29\nWriting application : mkvmerge v6.9.1 ('Blue Panther') 64bit built on Apr 18 2014 18:23:38\nWriting library : libebml v1.3.0 + libmatroska v1.4.1\n\nVideo\nID : 1\nFormat : AVC\nFormat/Info : Advanced Video Codec\nFormat profile : &lt;a class=&quot;__cf_email__&quot; href=&quot;/cdn-cgi/l/email-protection&quot; data-cfemail=&quot;1850717f7058542c3629&quot;&gt;[email&amp;#160;protected]&lt;/a&gt;&lt;script cf-hash='f9e31' type=&quot;text/javascript&quot;&gt;\n/* &lt;![CDATA[ */!function(){try{var t=&quot;currentScript&quot;in document?document.currentScript:function(){for(var t=document.getElementsByTagName(&quot;script&quot;),e=t.length;e--;)if(t[e].getAttribute(&quot;cf-hash&quot;))return t[e]}();if(t&amp;&amp;t.previousSibling){var e,r,n,i,c=t.previousSibling,a=c.getAttribute(&quot;data-cfemail&quot;);if(a){for(e=&quot;&quot;,r=parseInt(a.substr(0,2),16),n=2;a.length-n;n+=2)i=parseInt(a.substr(n,2),16)^r,e+=String.fromCharCode(i);e=document.createTextNode(e),c.parentNode.replaceChild(e,c)}}}catch(u){}}();/* ]]&gt; */&lt;/script&gt;\nFormat settings, CABAC : Yes\nFormat settings, ReFrames : 8 frames\nCodec ID : V_MPEG4/ISO/AVC\nDuration : 2h 4mn\nBit rate : 1 850 Kbps\nWidth : 712 pixels\nHeight : 460 pixels\nDisplay aspect ratio : 16:9\nOriginal display aspect ratio : 16:9\nFrame rate : 23.976 fps\nColor space : YUV\nChroma subsampling : 4:2:0\nBit depth : 8 bits\nScan type : Progressive\nBits/(Pixel*Frame) : 0.236\nStream size : 1.58 GiB (89%)\nWriting library : x264 core 138 r2358 9e941d1\nEncoding settings : cabac=1 / ref=8 / deblock=1:0:0 / analyse=0x3:0x133 / me=umh / subme=10 / psy=1 / psy_rd=1.00:0.15 / mixed_ref=1 / me_range=25 / chroma_me=1 / trellis=2 / 8x8dct=1 / cqm=0 / deadzone=21,11 / fast_pskip=0 / chroma_qp_offset=-3 / threads=6 / lookahead_threads=1 / sliced_threads=0 / nr=0 / decimate=0 / interlaced=0 / bluray_compat=0 / constrained_intra=0 / bframes=8 / b_pyramid=2 / b_adapt=2 / b_bias=0 / direct=3 / weightb=1 / open_gop=0 / weightp=2 / keyint=240 / keyint_min=23 / scenecut=40 / intra_refresh=0 / rc_lookahead=60 / rc=2pass / mbtree=1 / bitrate=1850 / ratetol=3.0 / qcomp=0.60 / qpmin=0 / qpmax=69 / qpstep=4 / cplxblur=20.0 / qblur=0.5 / vbv_maxrate=14000 / vbv_bufsize=14000 / nal_hrd=none / ip_ratio=1.40 / aq=1:1.50\nLanguage : English\nDefault : Yes\nForced : No\n\nAudio\nID : 2\nFormat : AC-3\nFormat/Info : Audio Coding 3\nMode extension : CM (complete main)\nCodec ID : A_AC3\nDuration : 2h 4mn\nBit rate mode : Constant\nBit rate : 192 Kbps\nChannel(s) : 2 channels\nChannel positions : Front: L R\nSampling rate : 48.0 KHz\nBit depth : 16 bits\nCompression mode : Lossy\nStream size : 171 MiB (9%)\nLanguage : Japanese\nDefault : Yes\nForced : No\n\nText #1\nID : 3\nFormat : UTF-8\nCodec ID : S_TEXT/UTF8\nCodec ID/Info : UTF-8 Plain Text\nTitle : SubRip\nLanguage : English\nDefault : Yes\nForced : No\n\nText #2\nID : 4\nFormat : VobSub\nMuxing mode : zlib\nCodec ID : S_VOBSUB\nCodec ID/Info : The same subtitle format used on DVDs\nTitle : VobSub\nLanguage : English\nDefault : No\nForced : No\n\nNot my rip. Thanks to encoder","torrent":{"xt":"urn:btih:89fbae0d00863508476439ff6a054e89a7d3c68c","amp;dn":"Shohei+Imamura+-+Zegen.1987.DVDRip.x264-SMz","amp;tr":["udp%3A%2F%2Ftracker.openbittorrent.com%3A80","udp%3A%2F%2Fopen.demonii.com%3A1337","udp%3A%2F%2Ftracker.coppersurfer.tk%3A6969","udp%3A%2F%2Fexodus.desync.com%3A6969"],"infoHash":"89fbae0d00863508476439ff6a054e89a7d3c68c","infoHashBuffer":{"type":"Buffer","data":[137,251,174,13,0,134,53,8,71,100,57,255,106,5,78,137,167,211,198,140]},"announce":[],"urlList":[]}}